<svg width="355" height="238" viewBox="0 0 355 238" fill="none" xmlns="http://www.w3.org/2000/svg">
<path d="M355 0H0V238H355V0Z" fill="#FAE173"/>
<path d="M165.137 139.959C165.029 139.475 165.032 138.973 165.147 138.491C166.039 134.53 165.904 128.685 166.796 123.934C167.688 119.182 170.627 119.716 173.877 118.578C175.951 117.848 177.893 116.727 180.102 115.697C181.419 115.067 182.781 114.539 184.178 114.117C188.315 112.896 198.701 117.286 203.731 118.093C204.92 118.282 206.091 118.568 207.234 118.947L207.257 118.878C207.257 118.878 230.197 103.115 236.194 98.7975C242.192 94.4806 254.504 85.7153 254.504 85.7153L268.526 118.092C268.526 118.092 240.995 136.335 236.92 139.932C232.846 143.528 223.885 148.1 223.885 148.1L223.813 148.082C223.266 150.594 221.446 153.459 216.429 156.299L216.127 156.405C215.297 154.49 214.247 152.678 212.998 151.007C207.995 141.78 187.589 128.107 185.825 128.401C184.061 128.695 179.188 129.338 179.188 129.338C178.83 130.417 177.332 131.021 177.332 131.021H177.204C177.229 134.285 176.11 137.455 174.044 139.978C170.779 144.107 165.809 142.935 165.137 139.959Z" fill="#FFCEB6"/>
<path d="M221.895 58.7404C222.216 60.2125 222.34 61.7206 222.264 63.2253C222.248 63.4889 222.178 63.7458 222.056 63.9801C221.935 64.214 221.766 64.4201 221.56 64.5844C221.354 64.7486 221.116 64.8676 220.861 64.9336C220.606 64.9996 220.341 65.0111 220.081 64.9669L213.264 63.8389C212.846 63.7718 212.463 63.5642 212.179 63.2502C211.895 62.9358 211.726 62.5339 211.7 62.1106C211.673 60.9858 211.268 59.9033 210.551 59.0381C210.257 58.6966 209.929 58.3882 209.57 58.1172L207.608 70.0339L210.41 71.7333C214.264 74.0109 216.74 76.653 217.839 79.6603C218.938 82.6642 219.229 85.905 218.684 89.0576C218.338 91.2771 217.553 93.405 216.373 95.3149C215.248 97.134 213.797 98.7292 212.093 100.02C210.369 101.313 208.399 102.24 206.304 102.741C204.944 103.076 203.546 103.23 202.146 103.2L201.207 108.907C201.155 109.223 201.042 109.526 200.873 109.798C200.704 110.07 200.483 110.306 200.223 110.492C199.964 110.679 199.67 110.812 199.358 110.885C199.047 110.958 198.725 110.968 198.41 110.916C198.094 110.863 197.792 110.75 197.521 110.58C197.249 110.411 197.014 110.19 196.828 109.929C196.642 109.669 196.509 109.374 196.436 109.062C196.363 108.75 196.353 108.427 196.405 108.111L197.333 102.475C193.985 101.583 191.024 99.6052 188.913 96.8512C187.885 95.5499 187.079 94.0871 186.53 92.5216C186.361 92.0559 186.21 91.5777 186.079 91.0813C185.735 89.7901 185.552 88.4611 185.532 87.1247C185.522 86.6906 185.608 86.2594 185.783 85.862C185.958 85.465 186.218 85.1113 186.545 84.8262C186.872 84.5411 187.257 84.3317 187.674 84.2127C188.09 84.0941 188.528 84.0685 188.956 84.1385L191.836 84.6186L193.88 84.9556C194.485 85.0579 195.043 85.3471 195.477 85.7823C195.911 86.2179 196.199 86.778 196.3 87.3849C196.443 88.2249 196.686 89.0446 197.024 89.8264C197.426 90.7499 198.157 91.4902 199.074 91.9025L201.287 78.4603L198.842 77.0679C195.809 75.4104 193.306 72.927 191.62 69.9041C190.035 66.8669 189.529 63.3784 190.188 60.0145C190.535 57.7902 191.339 55.6631 192.551 53.768C193.705 51.9629 195.21 50.4096 196.976 49.2004C198.662 47.9903 200.583 47.1485 202.614 46.7288C203.913 46.4571 205.239 46.341 206.565 46.3822L207.391 41.3634C207.496 40.725 207.85 40.1545 208.375 39.7775C208.634 39.591 208.928 39.4576 209.24 39.3845C209.551 39.3119 209.873 39.3011 210.189 39.3534C210.504 39.4057 210.806 39.5198 211.078 39.6889C211.349 39.8579 211.585 40.0793 211.771 40.3399C211.957 40.6001 212.09 40.8948 212.163 41.207C212.236 41.5191 212.246 41.8424 212.194 42.1586L211.371 47.1648C212.689 47.5607 213.948 48.1286 215.117 48.8549C216.854 49.9236 218.345 51.3498 219.492 53.0391C220.65 54.7682 221.465 56.7033 221.895 58.7404ZM208.244 87.5528C208.511 86.1612 208.318 84.7198 207.694 83.4483C207.215 82.5756 206.556 81.8149 205.762 81.2169L203.926 92.3644C204.52 92.1964 205.091 91.9525 205.624 91.6381C206.345 91.2059 206.957 90.6124 207.412 89.9036C207.866 89.1947 208.151 88.3903 208.244 87.5528ZM203.125 67.2743L204.82 56.9813C204.018 57.1204 203.268 57.4751 202.651 58.0079C201.552 58.9261 200.826 60.2147 200.607 61.6316C200.441 62.6752 200.533 63.7436 200.873 64.7434C201.343 65.8011 202.13 66.686 203.125 67.2743Z" fill="#CCEFF6"/>
<path d="M165.137 139.958C165.808 142.935 170.779 144.103 174.039 139.979C176.105 137.456 177.223 134.286 177.199 131.022H177.328C177.328 131.022 178.825 130.418 179.184 129.339C179.184 129.339 184.052 128.696 185.82 128.402C187.588 128.108 207.99 141.781 212.994 151.008C214.242 152.679 215.292 154.491 216.122 156.406C216.665 157.812 216.872 159.152 216.218 159.928C213.962 162.616 211.204 161.825 209.268 159.591C209.172 159.482 209.077 159.366 208.981 159.248C207.035 156.756 202.04 150.674 202.04 150.674L197.873 148.081C198.845 148.993 199.758 149.966 200.606 150.995C201.722 152.52 206.11 157.011 208.081 160.091C208.588 160.757 208.921 161.539 209.05 162.367C209.008 162.973 208.823 163.559 208.511 164.079C208.198 164.599 207.766 165.036 207.252 165.355C206.736 165.674 206.153 165.866 205.55 165.914C204.947 165.962 204.341 165.865 203.782 165.632C203.712 165.603 203.646 165.568 203.584 165.526C201.915 164.49 193.702 157.105 192.428 155.901C192.173 155.426 191.822 155.01 191.398 154.679C191.141 154.472 190.868 154.287 190.581 154.125L190.568 154.115C188.409 152.884 186.045 153.347 184.004 154.946C181.752 156.719 182.74 155.672 181.766 156.689C181.682 155.889 181.341 155.139 180.794 154.551C178.777 152.28 176.041 152.168 173.467 153.557C171.48 154.702 169.563 155.965 167.726 157.339L160.233 158.058L160.168 158.046C160.352 156.709 160.062 155.35 159.351 154.205C157.723 151.743 155.28 151.997 153.993 152.074C153.782 152.088 153.573 152.125 153.37 152.186L153.354 152.074C152.356 151.582 151.39 151.028 150.46 150.416C149.242 149.654 147.92 148.776 146.862 148.064C145.698 147.279 144.861 146.698 144.861 146.698C144.94 137.176 145.631 127.67 146.931 118.237L148.621 118.894C151.359 119.96 156.534 121.967 157.195 122.201C157.512 122.368 157.865 122.456 158.223 122.456C158.581 122.456 158.933 122.368 159.25 122.201C160.187 121.845 171.215 116.024 173.444 115.493C175.672 114.961 180.096 115.693 180.096 115.693C177.884 116.726 175.942 117.848 173.871 118.574C170.625 119.713 167.679 119.174 166.79 123.929C165.901 128.685 166.034 134.526 165.141 138.486C165.028 138.97 165.026 139.474 165.137 139.958Z" fill="#FFCEB6"/>
<path d="M208.991 159.247C209.087 159.365 209.183 159.481 209.279 159.589C209.279 159.589 208.12 160.127 208.097 160.092C206.126 157.013 201.737 152.521 200.622 150.996C199.774 149.967 198.861 148.994 197.889 148.082L202.056 150.674C202.056 150.674 207.045 156.755 208.991 159.247Z" fill="#FFCEB6"/>
<path d="M203.595 165.526L203.368 165.859C203.283 166.307 203.095 166.729 202.818 167.092C202.542 167.454 202.185 167.746 201.775 167.946C201.194 168.312 200.544 168.553 199.865 168.654C199.186 168.755 198.493 168.713 197.831 168.532C197.238 168.244 196.665 167.915 196.117 167.546L195.241 167.45C195.683 167.04 196.075 166.578 196.406 166.074C197.651 163.969 197.608 162.665 196.235 161.569C195.719 161.08 195.084 160.735 194.393 160.569C193.702 160.403 192.98 160.421 192.298 160.623L192.153 160.533C192.227 160.41 192.291 160.282 192.345 160.149C192.672 159.493 192.851 158.772 192.867 158.038C192.884 157.304 192.738 156.576 192.44 155.906C193.714 157.104 201.923 164.49 203.595 165.526Z" fill="#FFCEB6"/>
<path d="M197.831 168.533C196.666 169.981 195.072 171.021 193.279 171.504C192.901 171.64 192.499 171.692 192.099 171.657C191.7 171.621 191.313 171.499 190.965 171.299L190.517 171.292C192.172 170.115 193.75 168.832 195.24 167.452L196.117 167.548C196.665 167.915 197.238 168.245 197.831 168.533Z" fill="#FFCEB6"/>
<path d="M196.235 161.561C197.608 162.657 197.647 163.962 196.406 166.066C196.075 166.57 195.683 167.033 195.241 167.443C193.75 168.823 192.172 170.106 190.517 171.283C189.967 171.683 189.616 171.926 189.616 171.926C184.196 175.118 181.794 175.827 179.855 174.912C179.255 174.672 178.716 174.298 178.28 173.82C177.844 173.341 177.521 172.769 177.337 172.147L177.241 171.929C179.417 170.974 181.524 169.87 183.549 168.627C183.549 168.627 190.636 163.099 192.15 160.522L192.295 160.611C192.978 160.41 193.701 160.391 194.392 160.558C195.083 160.725 195.719 161.071 196.235 161.561Z" fill="#FFCEB6"/>
<path d="M192.441 155.897C192.739 156.567 192.885 157.296 192.868 158.029C192.852 158.763 192.673 159.484 192.345 160.141C192.292 160.274 192.228 160.402 192.154 160.525C190.639 163.102 183.553 168.629 183.553 168.629C181.528 169.873 179.42 170.977 177.245 171.932C172.744 173.81 171.696 172.701 170.079 171.939C168.539 171.123 167.382 169.731 166.86 168.065V168.019C168.199 167.919 169.505 167.56 170.708 166.963C170.708 166.963 179.491 162.258 180.811 160.089C181.498 159.091 181.839 157.894 181.782 156.683C182.756 155.666 181.769 156.713 184.02 154.941C186.061 153.34 188.426 152.878 190.585 154.109L190.597 154.119C190.885 154.281 191.158 154.466 191.414 154.674C191.838 155.005 192.188 155.422 192.441 155.897Z" fill="#FFCEB6"/>
<path d="M167.731 157.337C169.57 155.963 171.489 154.7 173.477 153.555C176.052 152.165 178.787 152.278 180.805 154.549C181.352 155.137 181.693 155.887 181.776 156.687C181.834 157.898 181.493 159.095 180.805 160.092C179.485 162.261 170.703 166.966 170.703 166.966C169.5 167.563 168.193 167.922 166.854 168.022C164.309 168.107 161.769 167.75 159.346 166.966C156.703 166.28 155.442 161.324 155.442 161.324C156.454 161.158 157.439 160.859 158.372 160.432C158.848 160.218 159.264 159.887 159.579 159.47C159.894 159.052 160.1 158.562 160.176 158.043L160.241 158.056L167.731 157.337Z" fill="#FFCEB6"/>
<path d="M178.881 36.874L179.502 39.891L142.46 47.5433L152.503 96.4075L149.491 97.0277L148.87 94.0082L138.829 45.1478L175.869 37.4954L178.881 36.874Z" fill="#CCEFF6"/>
<path d="M175.869 37.4949L138.829 45.1476L148.87 94.008L145.858 94.632L135.195 42.748L175.25 34.4753L175.869 37.4949Z" fill="#006B99"/>
<path d="M153.378 152.185C153.581 152.124 153.79 152.086 154.001 152.072C155.288 151.999 157.727 151.742 159.36 154.204C160.071 155.349 160.36 156.708 160.177 158.045C160.101 158.562 159.895 159.053 159.58 159.471C159.264 159.888 158.849 160.219 158.372 160.433C157.439 160.859 156.454 161.159 155.443 161.324C153.195 161.703 150.857 161.499 149.83 160.486C148.106 158.78 146.252 154.86 150.278 150.718L150.47 150.414C151.399 151.026 152.366 151.579 153.363 152.071L153.378 152.185Z" fill="#FFCEB6"/>
<path d="M148.053 116.58L148.016 116.61C147.981 116.563 147.935 116.523 147.883 116.495C147.83 116.467 147.772 116.451 147.713 116.448C147.653 116.445 147.594 116.456 147.539 116.479C147.484 116.502 147.435 116.536 147.395 116.58C147.142 117.099 146.987 117.661 146.94 118.237C145.64 127.669 144.949 137.175 144.87 146.697C144.912 148.891 145.087 150.337 145.439 150.532C145.659 150.684 145.93 150.743 146.193 150.696L146.206 150.739C145.225 151.393 142.608 151.722 141.896 149.647C141.72 147.965 141.707 146.269 141.857 144.584C142.196 136.423 143.522 121.061 144.251 116.851C144.29 116.485 144.381 116.126 144.522 115.786C145.308 114.752 147.961 115.347 148.053 116.58Z" fill="#CCEFF6"/>
<path d="M144.074 116.818L144.255 116.852C143.525 121.066 142.198 136.428 141.861 144.585H141.765C141.765 144.585 136.09 142.031 133.207 141.687C129.026 141.193 86.5519 121.419 86.5519 121.419L102.804 89.6855L141.433 115.501L144.074 116.818Z" fill="#FFCEB6"/>
<path d="M254.5 85.7153L268.523 118.092" stroke="#FFCEB6" stroke-width="3.39567" stroke-linecap="round" stroke-linejoin="round"/>
<path d="M86.5483 121.415L102.803 89.6855" stroke="#FFCEB6" stroke-width="3.39567" stroke-linecap="round" stroke-linejoin="round"/>
<path d="M221.012 189.832C210.856 196.556 199.119 200.493 186.971 201.252C174.824 202.012 162.69 199.565 151.78 194.157C140.869 188.749 131.563 180.569 124.79 170.431C118.016 160.294 114.012 148.553 113.176 136.381" stroke="#006B99" stroke-width="3.39567" stroke-linecap="round" stroke-linejoin="round"/>
<path d="M252.205 133.701C251.917 143.661 249.5 153.442 245.118 162.386C240.736 171.329 234.49 179.225 226.802 185.542" stroke="#006B99" stroke-width="3.39567" stroke-linecap="round" stroke-linejoin="round"/>
<path d="M213.244 178.714C205.663 183.733 196.969 186.812 187.925 187.678C178.881 188.544 169.763 187.173 161.371 183.683C152.979 180.194 145.57 174.693 139.793 167.664C134.015 160.635 130.047 152.292 128.236 143.367" stroke="#006B99" stroke-width="3.39567" stroke-linecap="round" stroke-linejoin="round"/>
<path d="M237.182 142.646C234.76 155.463 227.921 167.018 217.862 175.292" stroke="#006B99" stroke-width="3.39567" stroke-linecap="round" stroke-linejoin="round"/>
<path d="M219.955 91.3049C223.241 94.2777 226.162 97.6319 228.656 101.298" stroke="#006B99" stroke-width="3.39567" stroke-linecap="round" stroke-linejoin="round"/>
<path d="M133.052 107.548C135.613 102.392 138.954 97.6631 142.957 93.53" stroke="#006B99" stroke-width="3.39567" stroke-linecap="round" stroke-linejoin="round"/>
<path d="M216.677 70.7231C225.438 75.6644 233.035 82.4389 238.95 90.5861" stroke="#006B99" stroke-width="3.39567" stroke-linecap="round" stroke-linejoin="round"/>
<path d="M121.103 98.929C125.556 90.5297 131.668 83.1265 139.066 77.1709" stroke="#006B99" stroke-width="3.39567" stroke-linecap="round" stroke-linejoin="round"/>
<path d="M207.26 118.877C207.26 118.877 230.2 103.113 236.197 98.7964C242.195 94.4798 254.504 85.7153 254.504 85.7153" stroke="#006B99" stroke-width="3.39567" stroke-linecap="round" stroke-linejoin="round"/>
<path d="M223.884 148.099C223.884 148.099 232.843 143.525 236.919 139.931C240.994 136.338 268.525 118.092 268.525 118.092" stroke="#006B99" stroke-width="3.39567" stroke-linecap="round" stroke-linejoin="round"/>
<path d="M86.5483 121.415C86.5483 121.415 129.023 141.194 133.203 141.683C136.087 142.027 141.762 144.581 141.762 144.581" stroke="#006B99" stroke-width="3.39567" stroke-linecap="round" stroke-linejoin="round"/>
<path d="M144.076 116.818L141.433 115.501L102.803 89.6855" stroke="#006B99" stroke-width="3.39567" stroke-linecap="round" stroke-linejoin="round"/>
<path d="M148.662 118.808C148.605 118.038 148.385 117.288 148.016 116.61C147.981 116.562 147.935 116.523 147.882 116.495C147.83 116.467 147.772 116.451 147.713 116.448C147.653 116.445 147.594 116.456 147.539 116.479C147.484 116.501 147.435 116.536 147.395 116.58C147.142 117.099 146.987 117.661 146.94 118.237C145.64 127.669 144.949 137.175 144.87 146.696C144.912 148.89 145.086 150.337 145.439 150.532C145.659 150.684 145.929 150.742 146.193 150.696C147.055 150.472 146.776 148.343 146.776 148.343" stroke="#006B99" stroke-width="3.39567" stroke-linecap="round" stroke-linejoin="round"/>
<path d="M148.053 116.58C147.957 115.347 145.308 114.756 144.527 115.785C144.387 116.126 144.296 116.485 144.257 116.851C143.526 121.065 142.2 136.427 141.863 144.584C141.713 146.269 141.726 147.964 141.902 149.647C142.61 151.722 145.227 151.392 146.212 150.739" stroke="#006B99" stroke-width="3.39567" stroke-linecap="round" stroke-linejoin="round"/>
<path d="M146.94 118.237L148.629 118.893C151.368 119.959 156.542 121.966 157.204 122.2C157.521 122.368 157.873 122.455 158.231 122.455C158.589 122.455 158.942 122.368 159.259 122.2C160.196 121.844 171.224 116.022 173.453 115.492C175.681 114.961 180.105 115.692 180.105 115.692" stroke="#006B99" stroke-width="3.39567" stroke-linecap="round" stroke-linejoin="round"/>
<path d="M144.87 146.697C144.87 146.697 145.706 147.277 146.871 148.063C147.924 148.775 149.251 149.653 150.469 150.415C151.399 151.027 152.365 151.58 153.362 152.072" stroke="#006B99" stroke-width="3.39567" stroke-linecap="round" stroke-linejoin="round"/>
<path d="M223.554 141.805C223.554 143.199 224.386 145.443 223.811 148.082C223.264 150.594 221.444 153.459 216.427 156.3" stroke="#006B99" stroke-width="3.39567" stroke-linecap="round" stroke-linejoin="round"/>
<path d="M211.766 121.111C210.367 120.176 208.842 119.447 207.236 118.946C206.094 118.567 204.923 118.281 203.734 118.092C198.704 117.286 188.314 112.894 184.18 114.115C182.784 114.537 181.421 115.066 180.105 115.696C177.893 116.729 175.951 117.85 173.88 118.576C170.634 119.715 167.688 119.176 166.799 123.932C165.91 128.688 166.042 134.529 165.15 138.489C165.035 138.971 165.032 139.473 165.14 139.957C165.81 142.934 170.782 144.102 174.042 139.977C176.108 137.455 177.226 134.285 177.202 131.021C177.196 130.1 177.092 129.183 176.893 128.285" stroke="#006B99" stroke-width="3.39567" stroke-linecap="round" stroke-linejoin="round"/>
<path d="M177.33 131.021C177.33 131.021 178.828 130.417 179.186 129.338C179.186 129.338 184.055 128.695 185.823 128.401C187.591 128.107 207.993 141.78 212.996 151.006" stroke="#006B99" stroke-width="3.39567" stroke-linecap="round" stroke-linejoin="round"/>
<path d="M212.997 151.007C214.245 152.678 215.295 154.49 216.125 156.405C216.668 157.811 216.875 159.151 216.22 159.927C213.965 162.615 211.206 161.824 209.271 159.59C209.175 159.481 209.079 159.365 208.984 159.247C207.037 156.755 202.044 150.673 202.044 150.673L197.877 148.08" stroke="#006B99" stroke-width="3.39567" stroke-linecap="round" stroke-linejoin="round"/>
<path d="M190.593 139.226C190.678 140.115 190.9 140.985 191.251 141.805C191.524 142.122 195.165 145.413 197.884 148.082C198.856 148.994 199.769 149.967 200.616 150.996C201.732 152.521 206.121 157.013 208.092 160.092C208.598 160.758 208.931 161.54 209.06 162.368C209.018 162.974 208.834 163.56 208.521 164.08C208.208 164.599 207.777 165.037 207.262 165.356C206.747 165.675 206.164 165.866 205.561 165.915C204.957 165.963 204.351 165.866 203.792 165.633C203.723 165.604 203.657 165.569 203.594 165.527C201.926 164.491 193.713 157.106 192.438 155.902L192.432 155.895" stroke="#006B99" stroke-width="3.39567" stroke-linecap="round" stroke-linejoin="round"/>
<path d="M203.368 165.859C203.283 166.308 203.095 166.729 202.818 167.092C202.542 167.454 202.184 167.746 201.775 167.946C201.194 168.312 200.544 168.553 199.865 168.654C199.186 168.755 198.493 168.714 197.831 168.532C197.238 168.244 196.665 167.915 196.117 167.546" stroke="#006B99" stroke-width="3.39567" stroke-linecap="round" stroke-linejoin="round"/>
<path d="M197.831 168.532C196.666 169.98 195.072 171.02 193.279 171.503C192.902 171.639 192.499 171.691 192.1 171.656C191.7 171.621 191.313 171.499 190.965 171.299" stroke="#006B99" stroke-width="3.39567" stroke-linecap="round" stroke-linejoin="round"/>
<path d="M185.823 128.401C185.823 128.401 187.311 126.922 187.311 126.081" stroke="#006B99" stroke-width="3.39567" stroke-linecap="round" stroke-linejoin="round"/>
<path d="M179.187 129.338C179.319 128.645 179.319 127.932 179.187 127.239" stroke="#006B99" stroke-width="3.39567" stroke-linecap="round" stroke-linejoin="round"/>
<path d="M165.062 139.651C165.061 139.759 165.087 139.865 165.137 139.961C165.733 141.169 169.911 140.779 171.25 138.767C172.695 136.592 170.931 133.701 170.931 133.701" stroke="#006B99" stroke-width="3.39567" stroke-linecap="round" stroke-linejoin="round"/>
<path d="M165.95 132.915C165.95 132.915 167.023 132.833 168.44 132.667" stroke="#006B99" stroke-width="3.39567" stroke-linecap="round" stroke-linejoin="round"/>
<path d="M212.52 160.092C213.5 159.801 214.4 159.289 215.15 158.593" stroke="#006B99" stroke-width="3.39567" stroke-linecap="round" stroke-linejoin="round"/>
<path d="M209.274 159.59C209.274 159.59 208.115 160.127 208.092 160.092" stroke="#006B99" stroke-width="3.39567" stroke-linecap="round" stroke-linejoin="round"/>
<path d="M151.094 153.4C151.786 152.876 152.557 152.467 153.378 152.19C153.581 152.129 153.79 152.091 154.001 152.077C155.288 152.004 157.727 151.747 159.36 154.209C160.071 155.354 160.36 156.713 160.177 158.049C160.101 158.567 159.895 159.058 159.58 159.476C159.264 159.893 158.849 160.224 158.372 160.438C157.439 160.864 156.454 161.164 155.443 161.329C153.195 161.708 150.857 161.504 149.83 160.491C148.106 158.785 146.252 154.865 150.278 150.723" stroke="#006B99" stroke-width="3.39567" stroke-linecap="round" stroke-linejoin="round"/>
<path d="M167.731 157.337C166.97 157.892 166.338 158.364 165.947 158.655" stroke="#006B99" stroke-width="3.39567" stroke-linecap="round" stroke-linejoin="round"/>
<path d="M155.443 161.326C155.443 161.326 156.704 166.282 159.347 166.968C161.77 167.752 164.311 168.109 166.856 168.024C168.194 167.924 169.501 167.565 170.704 166.968C170.704 166.968 179.486 162.263 180.806 160.095C181.493 159.097 181.835 157.9 181.777 156.689C181.694 155.889 181.353 155.139 180.806 154.551C178.788 152.28 176.053 152.167 173.478 153.557C171.492 154.702 169.575 155.965 167.737 157.339" stroke="#006B99" stroke-width="3.39567" stroke-linecap="round" stroke-linejoin="round"/>
<path d="M167.738 157.339H167.735L160.242 158.058" stroke="#006B99" stroke-width="3.39567" stroke-linecap="round" stroke-linejoin="round"/>
<path d="M173.656 156.944C173.032 157.683 172.693 158.621 172.699 159.59C172.745 159.997 172.891 160.387 173.123 160.725C173.355 161.063 173.666 161.338 174.029 161.528C174.392 161.717 174.796 161.813 175.205 161.809C175.614 161.805 176.016 161.7 176.375 161.504C178.078 160.56 180.803 158.65 180.053 156.944" stroke="#006B99" stroke-width="3.39567" stroke-linecap="round" stroke-linejoin="round"/>
<path d="M174.825 155.897C175.42 155.368 176.145 155.009 176.925 154.857C177.474 154.833 178.011 155.018 178.43 155.375" stroke="#006B99" stroke-width="3.39567" stroke-linecap="round" stroke-linejoin="round"/>
<path d="M190.58 154.115C188.42 152.884 186.057 153.346 184.016 154.946C181.764 156.719 182.751 155.672 181.777 156.689C181.757 156.709 181.738 156.732 181.715 156.755" stroke="#006B99" stroke-width="3.39567" stroke-linecap="round" stroke-linejoin="round"/>
<path d="M166.86 168.071C167.381 169.737 168.538 171.129 170.079 171.945C171.695 172.707 172.748 173.816 177.244 171.938C179.42 170.983 181.527 169.879 183.552 168.635C183.552 168.635 190.64 163.107 192.153 160.531C192.227 160.408 192.291 160.279 192.345 160.147C192.673 159.49 192.851 158.769 192.868 158.035C192.884 157.301 192.738 156.573 192.44 155.903C192.186 155.428 191.835 155.012 191.411 154.681C191.154 154.474 190.881 154.289 190.594 154.127" stroke="#006B99" stroke-width="3.39567" stroke-linecap="round" stroke-linejoin="round"/>
<path d="M184.763 158.253C184.276 159.089 184.102 160.072 184.272 161.025C184.387 161.418 184.597 161.778 184.883 162.071C185.169 162.364 185.522 162.582 185.912 162.707C186.301 162.831 186.716 162.858 187.118 162.784C187.52 162.711 187.899 162.54 188.219 162.286C189.74 161.065 192.1 158.718 191.074 157.164" stroke="#006B99" stroke-width="3.39567" stroke-linecap="round" stroke-linejoin="round"/>
<path d="M185.737 157.019C186.233 156.398 186.886 155.922 187.629 155.639C188.167 155.522 188.729 155.613 189.203 155.894" stroke="#006B99" stroke-width="3.39567" stroke-linecap="round" stroke-linejoin="round"/>
<path d="M177.337 172.156C177.521 172.778 177.844 173.349 178.28 173.828C178.716 174.307 179.254 174.681 179.855 174.921C181.794 175.835 184.197 175.126 189.615 171.935C189.615 171.935 189.967 171.692 190.517 171.292C192.172 170.115 193.75 168.832 195.24 167.451C195.683 167.041 196.074 166.579 196.406 166.074C197.651 163.97 197.608 162.666 196.235 161.57C195.719 161.081 195.083 160.736 194.392 160.57C193.702 160.404 192.979 160.422 192.298 160.624" stroke="#006B99" stroke-width="3.39567" stroke-linecap="round" stroke-linejoin="round"/>
<path d="M190.823 163.827C190.447 164.473 190.313 165.233 190.445 165.969C190.534 166.274 190.696 166.552 190.917 166.78C191.138 167.007 191.411 167.176 191.713 167.273C192.015 167.369 192.335 167.389 192.647 167.333C192.958 167.276 193.251 167.142 193.499 166.945C194.675 166.001 196.502 164.187 195.702 162.982" stroke="#006B99" stroke-width="3.39567" stroke-linecap="round" stroke-linejoin="round"/>
<path d="M191.579 162.87C191.964 162.389 192.471 162.021 193.048 161.804C193.463 161.713 193.897 161.784 194.262 162.003" stroke="#006B99" stroke-width="3.39567" stroke-linecap="round" stroke-linejoin="round"/>
<path d="M187.311 149.934L188.414 152.043L190.58 154.115L190.592 154.125" stroke="#006B99" stroke-width="3.39567" stroke-linecap="round" stroke-linejoin="round"/>
<path d="M158.373 160.435C157.416 159.995 156.544 159.391 155.795 158.65C155.287 157.986 154.934 157.215 154.765 156.395C154.729 156.21 154.645 156.037 154.523 155.894C154.4 155.751 154.242 155.642 154.065 155.579C153.888 155.515 153.697 155.499 153.512 155.532C153.326 155.565 153.152 155.645 153.007 155.765C152.546 156.107 152.224 156.604 152.098 157.164C151.953 157.808 152.028 158.482 152.311 159.078C152.594 159.674 153.069 160.158 153.658 160.451" stroke="#006B99" stroke-width="3.39567" stroke-linecap="round" stroke-linejoin="round"/>
<path d="M186.505 92.5292L153.122 99.4231L152.503 96.4073L142.46 47.5432L179.502 39.8905L182.512 39.2703L191.834 84.6126" stroke="#006B99" stroke-width="3.39567" stroke-linecap="round" stroke-linejoin="round"/>
<path d="M152.503 96.4075L149.491 97.0277L148.87 94.0082L138.829 45.1478L175.869 37.4954L178.881 36.874L179.502 39.891V39.8936" stroke="#006B99" stroke-width="3.39567" stroke-linecap="round" stroke-linejoin="round"/>
<path d="M148.87 94.008L145.858 94.632L135.195 42.748L175.25 34.4753L175.869 37.4949" stroke="#006B99" stroke-width="3.39567" stroke-linecap="round" stroke-linejoin="round"/>
<path d="M150.251 53.1303L177.56 47.4902" stroke="#006B99" stroke-width="3.39567" stroke-linecap="round" stroke-linejoin="round"/>
<path d="M152.997 58.8594L180.306 53.2156" stroke="#006B99" stroke-width="3.39567" stroke-linecap="round" stroke-linejoin="round"/>
<path d="M150.607 62.4993L180.928 56.2354" stroke="#006B99" stroke-width="3.39567" stroke-linecap="round" stroke-linejoin="round"/>
<path d="M151.226 65.5183L181.547 59.2554" stroke="#006B99" stroke-width="3.39567" stroke-linecap="round" stroke-linejoin="round"/>
<path d="M151.848 68.538L173.133 64.1394" stroke="#006B99" stroke-width="3.39567" stroke-linecap="round" stroke-linejoin="round"/>
<path d="M155.479 70.9348L182.788 65.2947" stroke="#006B99" stroke-width="3.39567" stroke-linecap="round" stroke-linejoin="round"/>
<path d="M153.09 74.5744L183.41 68.3145" stroke="#006B99" stroke-width="3.39567" stroke-linecap="round" stroke-linejoin="round"/>
<path d="M153.708 77.5932L184.029 71.3303" stroke="#006B99" stroke-width="3.39567" stroke-linecap="round" stroke-linejoin="round"/>
<path d="M157.339 79.9925L184.652 74.3499" stroke="#006B99" stroke-width="3.39567" stroke-linecap="round" stroke-linejoin="round"/>
<path d="M154.949 83.6325L185.27 77.3696" stroke="#006B99" stroke-width="3.39567" stroke-linecap="round" stroke-linejoin="round"/>
<path d="M155.571 86.6524L185.892 80.3892" stroke="#006B99" stroke-width="3.39567" stroke-linecap="round" stroke-linejoin="round"/>
<path d="M165.252 92.5198L168.344 91.8832L172.017 91.1236L179.647 89.5462L181.097 89.2456L183.529 88.7444" stroke="#006B99" stroke-width="3.39567" stroke-linecap="round" stroke-linejoin="round"/>
<path d="M174.244 87.863C174.148 88.2134 173.555 90.418 174.372 90.441C175.254 90.467 177.266 85.3818 177.266 85.3818C177.266 85.3818 176.281 89.5105 177.472 89.5961C178.664 89.6814 178.491 86.659 179.524 86.3787C180.251 86.18 179.648 88.3383 179.648 89.5472C179.648 90.0655 179.76 90.4113 180.133 90.3153C180.597 90.2 180.876 89.7611 181.098 89.2458C181.46 88.3817 181.666 87.3051 182.312 87.1439" stroke="#006B99" stroke-width="3.39567" stroke-linecap="round" stroke-linejoin="round"/>
<path d="M170.413 89.3482C170.834 90.3747 171.466 91.1724 171.999 91.0479C173.21 90.7539 174.112 88.2364 174.241 87.8631C174.243 87.8519 174.246 87.8408 174.25 87.8304V87.8208" stroke="#006B99" stroke-width="3.39567" stroke-linecap="round" stroke-linejoin="round"/>
<path d="M170.413 89.3483C171.39 87.4999 171.93 85.332 170.761 85.6326C169.627 85.9262 169.808 87.8695 170.413 89.3483Z" stroke="#006B99" stroke-width="3.39567" stroke-linecap="round" stroke-linejoin="round"/>
<path d="M168.321 91.7739C168.976 91.5963 169.785 90.5401 170.414 89.3486" stroke="#006B99" stroke-width="3.39567" stroke-linecap="round" stroke-linejoin="round"/>
<path d="M163.364 88.926L161.849 91.2323L160.335 93.5355" stroke="#006B99" stroke-width="3.39567" stroke-linecap="round" stroke-linejoin="round"/>
<path d="M159.548 89.7141L161.849 91.2322L164.147 92.7473" stroke="#006B99" stroke-width="3.39567" stroke-linecap="round" stroke-linejoin="round"/>
<path d="M186.528 92.52C187.078 94.0852 187.883 95.5484 188.911 96.8492C191.022 99.6029 193.983 101.58 197.332 102.473L196.403 108.109C196.351 108.425 196.362 108.748 196.434 109.061C196.507 109.372 196.64 109.667 196.826 109.928C197.012 110.188 197.248 110.409 197.519 110.579C197.79 110.748 198.092 110.862 198.408 110.914C198.723 110.966 199.045 110.956 199.356 110.883C199.668 110.81 199.962 110.677 200.221 110.49C200.481 110.304 200.702 110.068 200.871 109.796C201.04 109.524 201.153 109.221 201.205 108.905L202.144 103.199C203.544 103.229 204.942 103.074 206.302 102.74C208.397 102.238 210.367 101.31 212.091 100.016C213.795 98.7254 215.246 97.1306 216.371 95.3111C217.551 93.4023 218.337 91.2763 218.684 89.0575C219.229 85.9049 218.937 82.6638 217.838 79.6595C216.739 76.6511 214.262 74.0087 210.409 71.7325L207.607 70.0331L209.569 58.1168C209.928 58.3874 210.256 58.6962 210.549 59.0373C211.267 59.9025 211.672 60.985 211.699 62.1098C211.725 62.5331 211.894 62.935 212.178 63.2493C212.462 63.5633 212.845 63.7709 213.263 63.838L220.08 64.9665C220.34 65.0103 220.605 64.9988 220.86 64.9328C221.115 64.8668 221.353 64.7478 221.559 64.5836C221.765 64.4193 221.934 64.2136 222.055 63.9793C222.177 63.745 222.247 63.4881 222.263 63.2245C222.339 61.7198 222.215 60.2117 221.894 58.7396C221.463 56.7047 220.648 54.7714 219.491 53.0443C218.344 51.3549 216.853 49.9288 215.116 48.8596C213.947 48.1338 212.687 47.5654 211.37 47.1699L212.193 42.1637C212.245 41.8475 212.234 41.5242 212.162 41.2121C212.089 40.9 211.956 40.6052 211.77 40.3446C211.584 40.0844 211.348 39.8631 211.077 39.694C210.805 39.5246 210.503 39.4108 210.188 39.3585C209.873 39.3063 209.55 39.317 209.239 39.3897C208.927 39.4623 208.633 39.5958 208.373 39.7826C207.849 40.1596 207.495 40.7302 207.39 41.3685L206.564 46.3873C205.238 46.3458 203.912 46.4622 202.614 46.7339C200.582 47.1536 198.662 47.9955 196.975 49.2055C195.209 50.4148 193.705 51.9681 192.55 53.7727C191.338 55.6678 190.534 57.7954 190.187 60.0197C189.529 63.3835 190.034 66.872 191.619 69.9093C193.304 72.9321 195.808 75.4155 198.841 77.073L201.284 78.4624L199.072 91.9046C198.154 91.4924 197.423 90.7521 197.021 89.8286C196.683 89.0464 196.44 88.2264 196.297 87.386C196.195 86.7791 195.908 86.2193 195.474 85.7841C195.04 85.3489 194.482 85.0601 193.877 84.9578L191.833 84.6208L188.953 84.1407C188.525 84.0706 188.088 84.0962 187.671 84.2149C187.254 84.3339 186.869 84.5433 186.542 84.828C186.215 85.1131 185.955 85.4671 185.78 85.8642C185.605 86.2616 185.519 86.6927 185.529 87.1268C185.548 88.4633 185.732 89.7919 186.076 91.0835C186.208 91.5762 186.359 92.0544 186.528 92.52Z" stroke="#006B99" stroke-width="3.39567" stroke-linecap="round" stroke-linejoin="round"/>
<path d="M200.869 64.7463C200.528 63.7465 200.437 62.6781 200.603 61.6345C200.822 60.2176 201.548 58.9294 202.647 58.0108C203.264 57.478 204.014 57.1233 204.816 56.9846L203.121 67.2772C202.126 66.6889 201.339 65.8043 200.869 64.7463Z" stroke="#006B99" stroke-width="3.39567" stroke-linecap="round" stroke-linejoin="round"/>
<path d="M205.627 91.6381C205.094 91.9525 204.523 92.1964 203.929 92.364L205.765 81.2166C206.559 81.8149 207.218 82.5752 207.697 83.4479C208.321 84.7198 208.514 86.1612 208.247 87.5528C208.154 88.3903 207.869 89.1947 207.415 89.9036C206.96 90.612 206.348 91.2059 205.627 91.6381Z" stroke="#006B99" stroke-width="3.39567" stroke-linecap="round" stroke-linejoin="round"/>
</svg>
